<?xml version="1.0" encoding="utf-8"?>
<!-- Generator: Adobe Illustrator 16.0.0, SVG Export Plug-In . SVG Version: 6.00 Build 0)  -->
<!DOCTYPE svg PUBLIC "-//W3C//DTD SVG 1.1//EN" "http://www.w3.org/Graphics/SVG/1.1/DTD/svg11.dtd">
<svg version="1.1" id="Capa_1" xmlns="http://www.w3.org/2000/svg" xmlns:xlink="http://www.w3.org/1999/xlink" x="0px" y="0px"
	 width="512px" height="512px" viewBox="0 0 512 512" enable-background="new 0 0 512 512" xml:space="preserve">
<path fill="#FFFFFF" d="M255.635,0C114.46,0,0,114.461,0,255.634c0,141.174,114.46,255.634,255.634,255.634
	c141.172,0,255.634-114.46,255.634-255.634S396.808,0,255.635,0z M255.635,415.405c-17.64,0-31.954-14.314-31.954-31.954
	c0-17.638,14.314-31.954,31.954-31.954c17.636,0,31.954,14.317,31.954,31.954C287.588,401.091,273.271,415.405,255.635,415.405z
	 M299.688,266.286c-14.103,13.017-22.75,21.558-22.75,31.954h-42.606c0-29.59,20.215-48.25,36.448-63.27
	c17.021-15.721,27.461-26.223,27.461-43.245c0-23.496-19.109-42.605-42.606-42.605c-23.499,0-42.606,19.109-42.606,42.605h-42.605
	c0-46.994,38.215-85.211,85.211-85.211c46.994,0,85.211,38.218,85.211,85.211C340.846,228.26,318.029,249.33,299.688,266.286z"/>
</svg>
