<?xml version="1.0" encoding="utf-8"?>
<!-- Generator: Adobe Illustrator 16.0.0, SVG Export Plug-In . SVG Version: 6.00 Build 0)  -->
<!DOCTYPE svg PUBLIC "-//W3C//DTD SVG 1.1//EN" "http://www.w3.org/Graphics/SVG/1.1/DTD/svg11.dtd">
<svg version="1.1" id="Capa_1" xmlns="http://www.w3.org/2000/svg" xmlns:xlink="http://www.w3.org/1999/xlink" x="0px" y="0px"
	 width="512px" height="512px" viewBox="0 0 512 512" enable-background="new 0 0 512 512" xml:space="preserve">
<path fill="#FFFFFF" d="M256.69,0C114.925,0,0,114.924,0,256.689S114.925,513.379,256.69,513.379
	c141.766,0,256.689-114.924,256.689-256.689S398.455,0,256.69,0z M384.072,273.519c0,2.753-0.915,5.186-2.749,7.305
	c-1.833,2.123-4.186,3.35-7.046,3.697l-179.449,20.97c0.115,0.801,0.372,2.034,0.773,3.691c0.4,1.664,0.744,3.184,1.031,4.557
	c0.286,1.371,0.431,2.632,0.431,3.782c0,1.833-1.375,5.495-4.126,10.998h158.126c2.979,0,5.56,1.094,7.735,3.267
	c2.179,2.177,3.267,4.756,3.267,7.734c0,2.981-1.088,5.561-3.267,7.74c-2.177,2.17-4.756,3.263-7.735,3.263h-10.989
	c6.069,0,11.258,2.151,15.551,6.444c4.3,4.296,6.448,9.481,6.448,15.556c0,6.076-2.15,11.261-6.448,15.555
	c-4.293,4.296-9.481,6.445-15.551,6.445c-6.077,0-11.266-2.149-15.56-6.445c-4.292-4.294-6.448-9.479-6.448-15.555
	c0-6.074,2.156-11.26,6.448-15.556c4.294-4.293,9.482-6.444,15.56-6.444h-0.004H186.065h-0.001c6.071,0,11.257,2.151,15.553,6.444
	c4.3,4.296,6.448,9.481,6.448,15.556c0,6.076-2.15,11.261-6.448,15.555c-4.295,4.296-9.482,6.445-15.553,6.445
	c-6.075,0-11.257-2.149-15.557-6.445c-4.297-4.294-6.443-9.479-6.443-15.555c0-6.074,2.149-11.26,6.443-15.556
	c4.296-4.293,9.483-6.444,15.557-6.444h-10.999c-2.979,0-5.557-1.093-7.737-3.263c-2.177-2.181-3.266-4.76-3.266-7.74
	c0-1.603,0.631-3.864,1.891-6.789c1.257-2.921,2.948-6.33,5.068-10.228c2.122-3.898,3.296-6.073,3.523-6.53l-30.421-141.46h-35.059
	c-2.979,0-5.559-1.087-7.736-3.265c-2.177-2.178-3.267-4.755-3.267-7.736c0-2.979,1.09-5.558,3.267-7.734
	c2.176-2.175,4.754-3.266,7.736-3.266h44.001c1.833,0,3.467,0.373,4.897,1.114c1.434,0.748,2.58,1.634,3.438,2.668
	c0.859,1.028,1.604,2.433,2.233,4.21c0.632,1.777,1.06,3.295,1.29,4.552c0.229,1.263,0.543,2.952,0.945,5.072
	c0.4,2.12,0.657,3.58,0.774,4.381h206.427c2.98,0,5.557,1.089,7.734,3.267c2.18,2.181,3.267,4.758,3.268,7.737L384.072,273.519
	L384.072,273.519z"/>
</svg>
