<?xml version="1.0" encoding="utf-8"?>
<!-- Generator: Adobe Illustrator 16.0.0, SVG Export Plug-In . SVG Version: 6.00 Build 0)  -->
<!DOCTYPE svg PUBLIC "-//W3C//DTD SVG 1.1//EN" "http://www.w3.org/Graphics/SVG/1.1/DTD/svg11.dtd">
<svg version="1.1" id="Capa_1" xmlns="http://www.w3.org/2000/svg" xmlns:xlink="http://www.w3.org/1999/xlink" x="0px" y="0px"
	 width="512px" height="512px" viewBox="0 0 512 512" enable-background="new 0 0 512 512" xml:space="preserve">
<g>
	<path fill="#FFFFFF" d="M194.773,269.018v-73.696H134.69c-6.292,0.005-11.392,5.106-11.398,11.397v103.145
		c0.007,6.293,5.107,11.392,11.398,11.398h12.43c3.147,0,5.698,2.552,5.698,5.7v26.641l48.715-31.428
		c0.922-0.595,1.995-0.913,3.091-0.913h60.442c6.291-0.007,11.39-5.105,11.398-11.398v-18.05h-58.897
		C204.984,291.8,194.787,281.604,194.773,269.018z"/>
	<path fill="#FFFFFF" d="M363.775,157.881H217.568c-6.293,0.007-11.39,5.107-11.398,11.397v99.739
		c0.008,6.29,5.104,11.392,11.398,11.398h80.479c1.313,0,2.585,0.454,3.603,1.284l45.185,36.875v-32.461
		c0-3.147,2.553-5.698,5.699-5.698h11.241c6.293-0.007,11.392-5.108,11.398-11.398v-99.739
		C375.167,162.988,370.068,157.888,363.775,157.881z"/>
	<path fill="#FFFFFF" d="M255.211,0C114.261,0,0,114.261,0,255.212c0,140.949,114.261,255.212,255.211,255.212
		s255.211-114.263,255.211-255.212C510.422,114.261,396.161,0,255.211,0z M386.573,269.018
		c-0.014,12.586-10.211,22.783-22.796,22.796h-5.544v38.768c0,2.201-1.266,4.204-3.255,5.149c-1.988,0.942-4.34,0.659-6.046-0.733
		l-52.91-43.184h-8.16v18.05c-0.014,12.585-10.21,22.783-22.796,22.797h-58.762l-56.094,36.186
		c-1.751,1.132-3.983,1.213-5.814,0.217c-1.832-0.998-2.971-2.916-2.971-5.002v-31.4h-6.732
		c-12.584-0.014-22.781-10.212-22.795-22.794V206.72c0.014-12.583,10.211-22.779,22.795-22.794h60.083v-14.646
		c0.013-12.584,10.21-22.781,22.794-22.794h146.208c12.585,0.013,22.783,10.21,22.796,22.794L386.573,269.018L386.573,269.018z"/>
</g>
</svg>
