<?xml version="1.0" encoding="utf-8"?>
<!-- Generator: Adobe Illustrator 16.0.0, SVG Export Plug-In . SVG Version: 6.00 Build 0)  -->
<!DOCTYPE svg PUBLIC "-//W3C//DTD SVG 1.1//EN" "http://www.w3.org/Graphics/SVG/1.1/DTD/svg11.dtd">
<svg version="1.1" id="Camada_1" xmlns="http://www.w3.org/2000/svg" xmlns:xlink="http://www.w3.org/1999/xlink" x="0px" y="0px"
	 width="456px" height="456px" viewBox="0 0 456 456" enable-background="new 0 0 456 456" xml:space="preserve">
<g>
	<path fill="#FFFFFF" d="M176.788,237.133v-62.447h-50.911c-5.331,0.005-9.652,4.327-9.658,9.657v87.4
		c0.006,5.332,4.327,9.652,9.658,9.657h10.532c2.667,0,4.829,2.162,4.829,4.83v22.575l41.278-26.631
		c0.781-0.504,1.69-0.774,2.619-0.774h51.216c5.33-0.005,9.65-4.325,9.658-9.657v-15.295h-49.906
		C185.441,256.436,176.8,247.797,176.788,237.133z"/>
	<path fill="#FFFFFF" d="M319.992,142.961H196.104c-5.333,0.006-9.652,4.327-9.658,9.657v84.514c0.006,5.33,4.325,9.652,9.658,9.658
		h68.193c1.112,0,2.191,0.385,3.053,1.088l38.287,31.245v-27.505c0-2.667,2.163-4.828,4.829-4.828h9.526
		c5.332-0.006,9.652-4.328,9.658-9.658v-84.514C329.645,147.288,325.324,142.967,319.992,142.961z"/>
	<path fill="#FFFFFF" d="M228,9.18C108.567,9.18,11.748,106,11.748,225.433S108.567,441.685,228,441.685
		c119.434,0,216.252-96.819,216.252-216.252S347.434,9.18,228,9.18z M339.309,237.133c-0.012,10.664-8.652,19.304-19.316,19.315
		h-4.698v32.849c0,1.865-1.072,3.563-2.757,4.363c-1.685,0.8-3.678,0.558-5.123-0.621l-44.834-36.591h-6.915v15.295
		c-0.011,10.663-8.651,19.304-19.315,19.315h-49.792l-47.531,30.662c-1.484,0.959-3.375,1.029-4.927,0.184
		c-1.552-0.845-2.518-2.471-2.518-4.238v-26.607h-5.704c-10.663-0.012-19.304-8.652-19.315-19.315v-87.4
		c0.011-10.662,8.652-19.301,19.315-19.314h50.911v-12.41c0.011-10.663,8.652-19.304,19.315-19.315h123.889
		c10.664,0.011,19.305,8.652,19.316,19.315V237.133z"/>
</g>
</svg>
