<?xml version="1.0" encoding="utf-8"?>
<!-- Generator: Adobe Illustrator 16.0.0, SVG Export Plug-In . SVG Version: 6.00 Build 0)  -->
<!DOCTYPE svg PUBLIC "-//W3C//DTD SVG 1.1//EN" "http://www.w3.org/Graphics/SVG/1.1/DTD/svg11.dtd">
<svg version="1.1" id="Camada_1" xmlns="http://www.w3.org/2000/svg" xmlns:xlink="http://www.w3.org/1999/xlink" x="0px" y="0px"
	 width="700px" height="700px" viewBox="0 0 700 700" enable-background="new 0 0 700 700" xml:space="preserve">
<g>
	<g>
		<defs>
			<rect id="SVGID_1_" x="0" y="0" width="700" height="700"/>
		</defs>
		<clipPath id="SVGID_2_">
			<use xlink:href="#SVGID_1_"  overflow="visible"/>
		</clipPath>
		<path clip-path="url(#SVGID_2_)" fill="#FFFFFF" d="M570.141,449.323c-0.009-0.357-0.019-0.713-0.029-1.069
			c-0.568-21.387-2.936-70.768-3.126-92.14c-0.183-20.719-3.89-41.643-5.887-62.238c-2.854-29.386-6.724-59.474-6.982-88.966
			c0.085-1.688,0.235-3.411-0.204-5.043c-0.889-3.303-4.157-5.598-7.545-6.065c-3.39-0.466-6.827,0.629-9.821,2.284
			c-2.175,1.2-4.24,2.764-5.456,4.928c-0.938,1.67-1.313,3.588-1.671,5.47c-4.589,26.549-11.767,50.995-21.897,75.924
			c-4.805,12.34-9.641,24.865-15.67,36.668c-3.655,7.16-20.532,48.663-33.254,36.83c-2.277-2.116-2.652-5.533-2.789-8.638
			c-1.01-23.307,3.423-47.057,13.356-68.203c11.02-23.458,27.512-38.943,49.244-52.264c2.412-1.479,5.083-3.343,5.394-6.157
			c0.409-3.716-3.761-6.493-7.5-6.533c-18.352-0.194-34.735,16.324-45.633,29.136c-10.665,12.534-19.41,26.437-25.655,41.657
			c-4.925,11.778-9.649,23.642-14.519,35.445c-3.272,7.933-6.369,16.412-10.448,23.941c-6.646-19.613-12.302-39.433-18.085-59.318
			c-4.489-15.445-7.938-32.917-16.199-46.888c-1.923-3.252-4.681-6.147-8.195-7.537c-3.8-1.5-8.17-1.099-11.955,0.446
			c-24.469,9.994-28.351,50.708-27.394,73.037c-0.988-23.021-2.136-49.495-11.008-70.971c-3.561-8.623-9.308-16.103-19.605-16.094
			c-4.712,0.005-9.444,1.935-12.644,5.396c-1.848,2-3.159,4.433-4.323,6.895c-5.119,10.823-7.437,22.919-10.675,34.398
			c-3.559,12.617-7.345,25.193-12.15,37.403c-8.272,21.03-16.307,42.174-26.106,62.559c-2.798,5.826-5.736,11.587-8.845,17.255
			c-3.639,6.642-8.384,12.479-13.873,17.745c-23.353,22.416-41.062-18.937-44.124-36.783c-0.007-0.037-0.016-0.076-0.025-0.115
			l-3.152-15.442c0,0,17.378-15.115,20.163-17.226c9.903-7.52,19.536-15.393,28.869-23.606c5.971-5.251,11.837-10.661,17.099-16.632
			c5.074-5.759,11.35-12.656,11.476-20.785c0.026-3.967-1.833-9.019-4.642-12.683c-3.539-5.833-12.116-9.679-21.462-9.596
			c-1.733,0.013-3.505,0.16-5.265,0.434c-4.351,0.684-12.666,2.829-19.634,9.53c-16.187,13.574-24.508,28.644-33.701,46.929
			c-0.024,0.044-0.045,0.089-0.063,0.134l-3.347,7.376c-2.202,4.21-5.111,11.179-6.347,16.652c-0.008,0.037-0.019,0.077-0.025,0.115
			c-0.513,2.659-0.884,4.936-1.163,7.108l-29.383,64.044l2.799-54.22c1.665-29.401,2.749-58.835,4.827-88.212
			c2.019-28.516,3.908-62.408,3.611-91.028c-0.175-16.68-0.941-60.377-1.725-76.947c-1.038-14.138-1.332-22.073-1.62-29.746
			c-0.293-8.518-0.617-16.676-1.659-31.007c-0.138-1.656-1.014-3.158-2.35-4.05c-0.889-0.579-1.871-0.868-2.876-0.86
			c-0.588,0.005-1.171,0.112-1.733,0.319c-4.691,1.786-9.521,9.74-10.587,17.384c-0.036,0.25-0.045,0.507-0.029,0.76
			c2.992,46.034,7.05,118.675,3.135,164.85c-1.198,14.142-2.737,33.531-4.628,47.597c-0.699,5.16-1.437,10.316-2.21,15.466
			c-0.558,3.667-1.077,7.335-1.569,11.016c-0.153,1.148-0.413,2.46-1.422,3.029c-0.912,0.514-2.784,0.226-3.774,0.254
			c-2.516,0.068-5.032,0.115-7.545,0.25c-10.624,0.567-21.523,4.566-30.961,9.312c-10.38,5.22-19.463,12.586-26.902,21.5
			c-14.143,16.945-23.847,37.869-29.021,59.256c-5.741,23.717-12.772,67.469,16.044,80.183c0.109,0.049,0.218,0.09,0.332,0.127
			c4.52,1.477,11.202,3.226,17.359,3.172c0.749-0.007,1.48-0.039,2.175-0.099c1.167-0.094,2.28-0.277,3.484-0.576
			c0.132-0.032,0.264-0.074,0.393-0.122l4.343-1.632c12.387-4.831,22.141-9.893,35.288-31.252c0.061-0.098,0.116-0.2,0.169-0.306
			c9.339-18.988,15.219-39.552,21.089-59.805c-1.479,18.658-3.982,37.166-3.817,55.901c0.242,5.217,0.8,10.669,3.68,15.024
			c1.705,2.578,4.454,4.658,7.48,5.379c7.089,1.692,11.505-7.69,14.436-12.736c5.087-8.769,8.935-18.164,13.053-27.404
			c2.099-4.712,4.26-9.398,6.7-13.947c1.651-3.083,4.138-11.342,8.135-12.063c3.754,11.199,9.467,21.609,15.767,31.561
			c5.826,9.197,11.237,17.762,22.433,20.794c18.403,4.986,33.406-8.873,43.576-22.361c13.234-17.548,20.652-38.458,28.248-58.843
			c11.875-31.88,22.038-65.028,35.445-96.258c0.789-1.841,1.984-3.664,3.838-4.422c7.853-3.211,9.788,27.474,10.373,32.406
			c1.739,14.648,2.608,29.386,4.463,44.023c3.222,25.394,6.575,50.871,6.589,76.515c0,3.049-0.01,6.22,1.297,8.975
			c4.867,10.254,14.003,1.43,16.979-5.374c4.795-10.969,4.203-26.661,5.126-38.554c1.403-18.117,2.08-36.281,3.208-54.414
			c0.613-9.864-0.245-19.764,1.002-29.601c0.629-4.942,5.162-26.301,14.039-21.626c5.782,3.043,8.626,16.524,10.536,22.199
			c3.113,9.247,5.556,18.701,7.986,28.145c4.697,18.247,9.341,36.736,18.253,53.474c1.462,2.742,3.091,5.507,5.567,7.387
			c7.497,5.687,15.405-2.215,19.255-8.326c1.524-2.423,3.247-4.59,4.04-7.338c1.04,5.695,1.381,11.285,4.531,16.357
			c7.383,11.886,25.086,12.126,36.283,5.977c9.875-5.425,16.459-14.994,21.755-24.652c16.587-30.261,28.361-62.981,39.02-95.717
			c-1.187,3.045,0.896,10.318,1.186,13.648c0.467,5.374,0.932,10.75,1.398,16.126c0.897,10.337,1.796,20.675,2.691,31.014
			c1.704,19.619,3.969,67.105,5.355,86.753c2.862,40.526,3.938,81.266,1.043,121.825c-1.596,22.324-4.398,44.575-8.718,66.543
			c-3.069,15.611-7.185,31.175-14.122,45.558c-5.515,11.434-18.438,30.815-33.68,23.309c-4.345-2.139-7.517-6.18-9.533-10.583
			c-7.652-16.696-9.167-38.522-10.065-56.617c-0.976-19.642,0.406-39.37,3.795-58.733c6.826-38.988,21.679-76.37,41.714-110.416
			c3.813-6.48,7.821-12.843,12.011-19.087c2.908-4.336,5.427-11.233,0.901-13.837c-3.439-1.981-7.589,0.875-10.429,3.651
			c-23.39,22.857-40.147,51.913-51.328,82.646c-10.525,28.933-16.209,59.598-16.955,90.369c-0.714,29.563,1.059,65.33,14.223,92.388
			c3.748,7.705,9.351,14.726,16.848,18.873c24.773,13.692,48.7-13.204,59.556-32.706c21.677-38.94,23.13-89.322,25.36-132.805
			C570.287,490.516,570.657,469.902,570.141,449.323 M220.51,266.294c5.976,0.029,8.674,1.401,8.79,2.144
			c0.711,4.487-6.373,10.132-9.035,12.822c-8.501,8.597-17.554,16.459-26.972,24.018l-11.018,8.843
			c-1.234,0.992-4.654,2.782-5.318,4.269C186.631,296.725,204.795,268.53,220.51,266.294 M103.602,302.417
			c0.008,0.16,0,0.324-0.012,0.483c-0.208,2.873-1.004,5.614-1.557,8.427c-1.135,5.795-2.422,11.56-3.827,17.297
			c-1.422,5.807-2.963,11.585-4.584,17.34c-1.623,5.752-3.331,11.484-5.095,17.195c-1.738,5.637-3.533,11.254-5.358,16.864
			c-0.251,0.774-0.502,1.549-0.756,2.324c-3.852,11.792-7.272,26.104-14.874,35.953c-6.79,8.798-15.287,19.79-27.782,18.931
			c-17.086-1.174-21.06-19.367-20.136-33.248c1.247-18.714,6.766-37.118,15.936-53.477c11.891-21.22,29.474-40.023,53.546-46.636
			c4.112-1.13,8.302-2.055,12.536-2.576c0.625-0.077,1.377-0.094,1.749,0.413C103.537,301.914,103.592,302.16,103.602,302.417
			 M696.292,248.85c-0.587-0.713-1.312-1.297-2.168-1.68c-3.763-1.683-8.156,1.172-10.239,4.728
			c-3.061,5.22-4.43,11.44-7.278,16.842c-3.195,6.067-7.179,11.706-11.727,16.833c2.324-2.619,2.403-11.413,2.883-14.842
			c0.688-4.945,1.116-9.923,1.355-14.911c0.668-13.997-0.193-28.106-2.681-41.899c-2.615-14.478-9.904-29.33-24.397-34.732
			c-12.656-4.716-29.463-3.307-38.55,7.667c-11.064,13.362-9.794,33.807-7.354,49.835c4.33,28.453,15.689,60.703,41.107,76.979
			c-5.297,11.179-24.324,34.175-39.366,26.912c-3.199-1.548-5.011-4.964-6.329-8.267c-6.882-17.261-4.796-37.968-0.822-55.765
			c1.934-8.668,4.857-17.423,3.669-26.422c-0.199-1.505-0.55-3.073-1.564-4.204c-2.526-2.819-7.354-1.213-9.981,1.514
			c-3.401,3.534-5.074,8.357-6.435,13.068c-7.359,25.507-12.12,59.564,0.885,84.116c4.919,9.286,14.455,17.23,25.707,16.271
			c0.646-0.049,1.37-0.14,2.178-0.274c9.065-1.426,18.923-6.521,27.719-14.337c9.296-8.262,16.633-18.863,21.297-30.755
			c12.229-4.578,21.662-14.429,28.693-25.146c6.157-9.388,15.141-24.344,15.252-35.927
			C698.163,252.457,697.537,250.362,696.292,248.85 M642.876,294.947c-0.268,0.329-11.693-13.396-12.55-14.681
			c-7.191-10.8-12.22-23.034-15.024-35.688c-2.585-11.678-5.105-27.912-0.285-39.325c3.756-8.891,14.579-10.589,22.255-5.568
			c13.13,8.594,14.318,27.274,14.182,41.412C651.272,259.234,650.386,278.141,642.876,294.947"/>
	</g>
</g>
</svg>
