<?xml version="1.0" encoding="utf-8"?>
<!-- Generator: Adobe Illustrator 16.0.0, SVG Export Plug-In . SVG Version: 6.00 Build 0)  -->
<!DOCTYPE svg PUBLIC "-//W3C//DTD SVG 1.1//EN" "http://www.w3.org/Graphics/SVG/1.1/DTD/svg11.dtd">
<svg version="1.1" id="Camada_1" xmlns="http://www.w3.org/2000/svg" xmlns:xlink="http://www.w3.org/1999/xlink" x="0px" y="0px"
	 width="700px" height="700px" viewBox="0 0 700 700" enable-background="new 0 0 700 700" xml:space="preserve">
<g>
	<defs>
		<rect id="SVGID_1_" width="700" height="700"/>
	</defs>
	<clipPath id="SVGID_2_">
		<use xlink:href="#SVGID_1_"  overflow="visible"/>
	</clipPath>
	<path clip-path="url(#SVGID_2_)" fill="#353535" d="M531.147,422.466c-0.007-0.263-0.014-0.526-0.021-0.789
		c-0.42-15.789-2.168-52.244-2.308-68.021c-0.135-15.296-2.872-30.742-4.347-45.946c-2.105-21.695-4.963-43.907-5.154-65.679
		c0.063-1.246,0.174-2.518-0.15-3.723c-0.657-2.438-3.07-4.133-5.571-4.477c-2.502-0.345-5.04,0.464-7.25,1.685
		c-1.605,0.886-3.131,2.04-4.028,3.638c-0.692,1.233-0.969,2.649-1.234,4.038c-3.387,19.6-8.686,37.647-16.166,56.05
		c-3.545,9.11-7.117,18.356-11.567,27.07c-2.699,5.286-15.157,35.925-24.55,27.19c-1.68-1.563-1.958-4.085-2.058-6.377
		c-0.745-17.206,2.527-34.74,9.86-50.35c8.135-17.317,20.311-28.749,36.354-38.583c1.781-1.092,3.753-2.468,3.981-4.546
		c0.303-2.743-2.775-4.793-5.536-4.822c-13.548-0.144-25.643,12.051-33.689,21.509c-7.873,9.253-14.329,19.516-18.939,30.753
		c-3.636,8.695-7.123,17.453-10.718,26.167c-2.416,5.856-4.702,12.116-7.714,17.674c-4.906-14.479-9.081-29.111-13.35-43.791
		c-3.315-11.402-5.86-24.3-11.959-34.614c-1.42-2.401-3.455-4.538-6.051-5.564c-2.805-1.108-6.031-0.812-8.825,0.329
		c-18.064,7.378-20.93,37.434-20.223,53.919c-0.729-16.995-1.577-36.539-8.127-52.394c-2.629-6.366-6.871-11.887-14.473-11.881
		c-3.479,0.003-6.972,1.428-9.334,3.984c-1.365,1.476-2.332,3.272-3.192,5.09c-3.779,7.99-5.49,16.92-7.881,25.394
		c-2.627,9.315-5.423,18.599-8.969,27.612c-6.107,15.526-12.039,31.135-19.273,46.184c-2.066,4.301-4.234,8.554-6.529,12.738
		c-2.687,4.903-6.19,9.213-10.242,13.1c-17.24,16.549-30.313-13.98-32.574-27.154c-0.005-0.028-0.012-0.057-0.018-0.085
		l-2.328-11.401c0,0,12.83-11.158,14.885-12.717c7.311-5.55,14.422-11.363,21.313-17.426c4.408-3.877,8.738-7.87,12.623-12.279
		c3.746-4.252,8.379-9.343,8.471-15.344c0.02-2.929-1.353-6.659-3.426-9.364c-2.613-4.305-8.945-7.145-15.844-7.084
		c-1.279,0.01-2.588,0.119-3.887,0.321c-3.212,0.505-9.35,2.089-14.495,7.036c-11.949,10.02-18.093,21.145-24.879,34.644
		c-0.017,0.033-0.033,0.066-0.047,0.099l-2.47,5.445c-1.625,3.109-3.774,8.253-4.686,12.293c-0.006,0.028-0.014,0.057-0.018,0.085
		c-0.379,1.963-0.653,3.644-0.859,5.247l-21.691,47.281l2.066-40.028c1.229-21.705,2.029-43.434,3.564-65.121
		c1.49-21.052,2.884-46.072,2.666-67.201c-0.129-12.314-0.696-44.572-1.274-56.805c-0.765-10.437-0.983-16.295-1.195-21.96
		c-0.217-6.288-0.456-12.31-1.225-22.89c-0.101-1.223-0.749-2.331-1.735-2.991c-0.656-0.427-1.381-0.64-2.123-0.634
		c-0.435,0.004-0.865,0.083-1.279,0.235c-3.463,1.318-7.03,7.19-7.817,12.834c-0.026,0.185-0.033,0.374-0.021,0.561
		c2.209,33.984,5.205,87.61,2.314,121.698c-0.885,10.44-2.02,24.754-3.417,35.137c-0.515,3.81-1.06,7.617-1.632,11.418
		c-0.412,2.707-0.795,5.415-1.158,8.132c-0.113,0.848-0.305,1.817-1.05,2.237c-0.673,0.379-2.054,0.167-2.786,0.187
		c-1.857,0.051-3.715,0.085-5.57,0.185c-7.843,0.419-15.889,3.371-22.857,6.874c-7.663,3.853-14.369,9.292-19.86,15.872
		c-10.44,12.51-17.604,27.956-21.425,43.745c-4.238,17.509-9.428,49.808,11.845,59.194c0.08,0.035,0.161,0.066,0.245,0.094
		c3.337,1.09,8.27,2.381,12.816,2.341c0.552-0.005,1.092-0.029,1.605-0.073c0.862-0.069,1.684-0.205,2.572-0.425
		c0.098-0.024,0.195-0.055,0.29-0.09l3.206-1.204c9.145-3.567,16.346-7.304,26.051-23.072c0.045-0.073,0.086-0.148,0.125-0.226
		c6.895-14.018,11.236-29.198,15.57-44.149c-1.092,13.773-2.941,27.436-2.819,41.267c0.179,3.852,0.591,7.877,2.717,11.093
		c1.259,1.902,3.288,3.438,5.522,3.971c5.234,1.249,8.494-5.678,10.658-9.404c3.756-6.472,6.595-13.409,9.635-20.23
		c1.55-3.479,3.146-6.939,4.947-10.297c1.218-2.275,3.054-8.372,6.006-8.905c2.771,8.267,6.988,15.953,11.639,23.298
		c4.301,6.791,8.296,13.114,16.561,15.352c13.586,3.681,24.662-6.551,32.17-16.509c9.769-12.954,15.246-28.39,20.853-43.439
		c8.767-23.535,16.269-48.006,26.166-71.062c0.583-1.359,1.465-2.705,2.834-3.264c5.798-2.371,7.226,20.282,7.658,23.922
		c1.284,10.814,1.925,21.695,3.295,32.5c2.378,18.748,4.854,37.555,4.864,56.487c0,2.251-0.008,4.592,0.957,6.626
		c3.593,7.569,10.338,1.054,12.535-3.968c3.54-8.098,3.103-19.683,3.784-28.462c1.036-13.375,1.536-26.784,2.369-40.17
		c0.452-7.282-0.181-14.591,0.74-21.852c0.463-3.649,3.81-19.417,10.364-15.966c4.268,2.247,6.368,12.199,7.778,16.388
		c2.299,6.827,4.102,13.806,5.896,20.778c3.467,13.47,6.895,27.12,13.474,39.476c1.079,2.025,2.282,4.066,4.111,5.453
		c5.535,4.198,11.373-1.634,14.214-6.146c1.126-1.789,2.398-3.389,2.983-5.418c0.768,4.205,1.019,8.332,3.345,12.076
		c5.45,8.775,18.52,8.952,26.786,4.412c7.29-4.005,12.151-11.069,16.06-18.199c12.245-22.34,20.938-46.495,28.806-70.662
		c-0.876,2.248,0.661,7.617,0.875,10.075c0.345,3.968,0.688,7.937,1.033,11.905c0.662,7.632,1.325,15.264,1.987,22.896
		c1.257,14.483,2.929,49.54,3.953,64.045c2.114,29.918,2.908,59.993,0.77,89.935c-1.178,16.482-3.247,32.907-6.435,49.125
		c-2.267,11.525-5.304,23.015-10.426,33.633c-4.072,8.44-13.612,22.749-24.865,17.207c-3.207-1.579-5.548-4.563-7.037-7.813
		c-5.649-12.326-6.767-28.439-7.43-41.797c-0.72-14.5,0.299-29.065,2.802-43.36c5.039-28.782,16.003-56.379,30.794-81.512
		c2.815-4.784,5.774-9.482,8.867-14.091c2.146-3.201,4.006-8.293,0.666-10.215c-2.54-1.463-5.604,0.646-7.7,2.695
		c-17.267,16.874-29.638,38.325-37.892,61.013c-7.771,21.359-11.966,43.998-12.517,66.714c-0.527,21.825,0.781,48.229,10.499,68.204
		c2.768,5.688,6.904,10.872,12.439,13.933c18.288,10.109,35.952-9.748,43.966-24.145c16.002-28.747,17.075-65.941,18.722-98.041
		C531.255,452.877,531.528,437.659,531.147,422.466 M273.035,287.347c4.412,0.022,6.404,1.035,6.49,1.583
		c0.524,3.313-4.705,7.48-6.67,9.466c-6.277,6.347-12.959,12.151-19.912,17.731l-8.134,6.528c-0.911,0.732-3.436,2.054-3.926,3.151
		C248.025,309.812,261.434,288.998,273.035,287.347 M186.73,314.014c0.006,0.119,0,0.24-0.009,0.357
		c-0.153,2.121-0.741,4.144-1.149,6.221c-0.838,4.279-1.789,8.534-2.826,12.77c-1.049,4.287-2.187,8.553-3.383,12.801
		c-1.199,4.247-2.459,8.478-3.762,12.694c-1.283,4.161-2.609,8.309-3.955,12.45c-0.186,0.572-0.371,1.144-0.559,1.716
		c-2.844,8.705-5.368,19.271-10.98,26.542c-5.013,6.495-11.285,14.61-20.51,13.976c-12.613-0.867-15.547-14.298-14.865-24.545
		c0.92-13.816,4.995-27.403,11.764-39.479c8.779-15.666,21.759-29.547,39.531-34.428c3.035-0.834,6.129-1.517,9.254-1.902
		c0.461-0.056,1.016-0.069,1.291,0.305C186.682,313.643,186.722,313.825,186.73,314.014 M624.277,274.469
		c-0.434-0.526-0.968-0.957-1.601-1.24c-2.777-1.242-6.021,0.865-7.558,3.49c-2.26,3.854-3.271,8.446-5.373,12.434
		c-2.36,4.479-5.3,8.642-8.658,12.427c1.716-1.934,1.775-8.426,2.128-10.957c0.508-3.651,0.825-7.325,1.001-11.008
		c0.494-10.333-0.142-20.749-1.979-30.932c-1.931-10.687-7.312-21.652-18.011-25.64c-9.344-3.482-21.751-2.442-28.459,5.66
		c-8.168,9.864-7.23,24.957-5.429,36.79c3.197,21.005,11.582,44.813,30.347,56.829c-3.91,8.253-17.957,25.229-29.061,19.867
		c-2.362-1.142-3.7-3.664-4.672-6.102c-5.081-12.744-3.541-28.03-0.608-41.168c1.428-6.4,3.586-12.863,2.708-19.506
		c-0.146-1.112-0.405-2.269-1.154-3.104c-1.865-2.081-5.43-0.895-7.369,1.118c-2.511,2.609-3.745,6.169-4.75,9.648
		c-5.433,18.83-8.947,43.973,0.653,62.098c3.631,6.855,10.671,12.72,18.979,12.011c0.476-0.036,1.01-0.103,1.606-0.203
		c6.693-1.052,13.97-4.813,20.464-10.584c6.862-6.099,12.279-13.926,15.722-22.705c9.028-3.379,15.992-10.651,21.182-18.563
		c4.546-6.931,11.178-17.972,11.26-26.523C625.659,277.133,625.196,275.586,624.277,274.469 M584.843,308.5
		c-0.198,0.243-8.633-9.89-9.265-10.838c-5.309-7.973-9.021-17.005-11.091-26.347c-1.909-8.621-3.77-20.605-0.211-29.031
		c2.772-6.564,10.764-7.817,16.43-4.11c9.693,6.344,10.57,20.134,10.468,30.572C591.042,282.135,590.387,296.093,584.843,308.5"/>
</g>
</svg>
