<?xml version="1.0" encoding="utf-8"?>
<!-- Generator: Adobe Illustrator 16.0.0, SVG Export Plug-In . SVG Version: 6.00 Build 0)  -->
<!DOCTYPE svg PUBLIC "-//W3C//DTD SVG 1.1//EN" "http://www.w3.org/Graphics/SVG/1.1/DTD/svg11.dtd">
<svg version="1.1" id="Capa_1" xmlns="http://www.w3.org/2000/svg" xmlns:xlink="http://www.w3.org/1999/xlink" x="0px" y="0px"
	 width="512px" height="512px" viewBox="0 0 512 512" enable-background="new 0 0 512 512" xml:space="preserve">
<g>
	<path fill="#FFFFFF" d="M364.84,152.887h-75.912c-2.239-0.002-4.463,0.392-6.564,1.161l-20.075,7.333
		c-1.485,0.543-3.012,0.972-4.563,1.285v201.658c0.065-0.025,0.129-0.043,0.191-0.066l20.07-7.331
		c3.507-1.28,7.212-1.937,10.94-1.935h75.912c10.556-0.014,19.112-8.567,19.123-19.123V172.01
		C383.952,161.453,375.395,152.9,364.84,152.887z"/>
	<path fill="#FFFFFF" d="M255.961,0C114.597,0,0,114.598,0,255.962c0,141.363,114.597,255.961,255.961,255.961
		s255.961-114.599,255.961-255.961C511.922,114.598,397.325,0,255.961,0z M396.712,335.869
		c-0.021,17.593-14.278,31.85-31.873,31.872h-75.907c-2.239-0.002-4.462,0.391-6.567,1.161l-20.072,7.33
		c-7.063,2.58-14.81,2.58-21.873,0l-20.072-7.33c-2.104-0.771-4.328-1.163-6.567-1.161h-75.913
		c-17.595-0.022-31.853-14.279-31.872-31.872V172.008c0.02-17.591,14.277-31.852,31.872-31.872h75.913
		c3.73,0,7.433,0.654,10.939,1.937l20.073,7.333c4.238,1.545,8.887,1.545,13.125,0l20.068-7.333
		c3.507-1.283,7.211-1.937,10.94-1.937h75.912c17.594,0.021,31.852,14.278,31.873,31.872V335.869z"/>
	<path fill="#FFFFFF" d="M220.347,154.048c-2.104-0.769-4.328-1.163-6.567-1.163h-75.913c-10.558,0.011-19.11,8.567-19.124,19.123
		v163.856c0.013,10.559,8.566,19.109,19.124,19.126h75.913c3.73-0.005,7.433,0.649,10.936,1.933l20.072,7.335
		c0.062,0.023,0.127,0.039,0.188,0.063V162.664c-1.548-0.313-3.071-0.743-4.559-1.284L220.347,154.048z M142.427,197.97h50.369
		c3.52,0,6.374,2.853,6.374,6.374c0,3.52-2.854,6.375-6.374,6.375h-50.369c-3.521,0-6.375-2.855-6.375-6.375
		C136.052,200.823,138.906,197.97,142.427,197.97z M218.293,309.903h-75.866c-3.521,0-6.375-2.853-6.375-6.376
		c0-3.516,2.854-6.373,6.375-6.373h75.866c3.521,0,6.374,2.857,6.374,6.373C224.667,307.049,221.814,309.903,218.293,309.903z
		 M218.293,276.841h-75.866c-3.521,0-6.375-2.853-6.375-6.374c0-3.522,2.854-6.375,6.375-6.375h75.866
		c3.521,0,6.374,2.853,6.374,6.375C224.667,273.988,221.814,276.841,218.293,276.841z M218.293,243.781h-75.866
		c-3.521,0-6.375-2.854-6.375-6.376c0-3.521,2.854-6.375,6.375-6.375h75.866c3.521,0,6.374,2.854,6.374,6.375
		C224.667,240.927,221.814,243.781,218.293,243.781z"/>
</g>
</svg>
