<?xml version="1.0" encoding="utf-8"?>
<!-- Generator: Adobe Illustrator 16.0.0, SVG Export Plug-In . SVG Version: 6.00 Build 0)  -->
<!DOCTYPE svg PUBLIC "-//W3C//DTD SVG 1.1//EN" "http://www.w3.org/Graphics/SVG/1.1/DTD/svg11.dtd">
<svg version="1.1" id="Camada_1" xmlns="http://www.w3.org/2000/svg" xmlns:xlink="http://www.w3.org/1999/xlink" x="0px" y="0px"
	 width="456px" height="456px" viewBox="0 0 456 456" enable-background="new 0 0 456 456" xml:space="preserve">
<g>
	<path fill="#FFFFFF" d="M-128.011,131.576h-64.136c-3.151,0-6.28,0.553-9.243,1.637l-16.956,6.195
		c-3.58,1.306-7.508,1.306-11.089,0l-16.959-6.195c-2.962-1.084-6.09-1.637-9.242-1.637h-64.136
		c-14.865,0.017-26.911,12.065-26.928,26.928v138.44c0.017,14.862,12.063,26.908,26.928,26.928h64.136
		c1.891-0.003,3.77,0.329,5.547,0.979l16.958,6.195c5.969,2.179,12.513,2.179,18.481,0l16.959-6.195
		c1.778-0.65,3.656-0.982,5.547-0.979h64.132c14.864-0.02,26.911-12.065,26.927-26.928v-138.44
		C-101.101,143.639-113.147,131.594-128.011,131.576z M-246.397,314.731c-2.96-1.084-6.088-1.638-9.239-1.634h-64.136
		c-8.92-0.012-16.146-7.238-16.157-16.158V158.504c0.01-8.918,7.237-16.146,16.157-16.157h64.136c1.891,0,3.77,0.333,5.547,0.983
		l16.958,6.193c1.256,0.457,2.544,0.82,3.852,1.085v170.373c-0.052-0.02-0.107-0.033-0.159-0.053L-246.397,314.731z
		 M-111.855,296.944c-0.01,8.917-7.238,16.146-16.156,16.156h-64.136c-3.151-0.002-6.28,0.552-9.243,1.635l-16.958,6.193
		c-0.052,0.02-0.107,0.036-0.162,0.056V150.611c1.311-0.265,2.601-0.627,3.856-1.086l16.961-6.195
		c1.774-0.65,3.654-0.983,5.545-0.981h64.136c8.918,0.011,16.146,7.237,16.156,16.157V296.944z"/>
	<path fill="#FFFFFF" d="M-315.921,191.209h42.555c2.974,0,5.385-2.412,5.385-5.386c0-2.975-2.411-5.385-5.385-5.385h-42.555
		c-2.974,0-5.385,2.41-5.385,5.385C-321.306,188.797-318.895,191.209-315.921,191.209z"/>
	<path fill="#FFFFFF" d="M-251.824,208.37h-64.097c-2.974,0-5.385,2.411-5.385,5.386c0,2.975,2.411,5.386,5.385,5.386h64.097
		c2.975,0,5.385-2.411,5.385-5.386C-246.439,210.781-248.849,208.37-251.824,208.37z"/>
	<path fill="#FFFFFF" d="M-251.824,236.302h-64.097c-2.974,0-5.385,2.411-5.385,5.386c0,2.976,2.411,5.386,5.385,5.386h64.097
		c2.975,0,5.385-2.41,5.385-5.386C-246.439,238.713-248.849,236.302-251.824,236.302z"/>
	<path fill="#FFFFFF" d="M-251.824,264.234h-64.097c-2.974,0-5.385,2.415-5.385,5.386c0,2.975,2.411,5.386,5.385,5.386h64.097
		c2.975,0,5.385-2.411,5.385-5.386C-246.439,266.649-248.849,264.234-251.824,264.234z"/>
</g>
<circle fill="#9E9E9E" cx="672.253" cy="225.433" r="216.252"/>
<g>
	<path fill="#FFFFFF" d="M319.989,138.349h-64.136c-1.892-0.002-3.771,0.331-5.546,0.981l-16.961,6.195
		c-1.255,0.459-2.545,0.821-3.855,1.086v170.373c0.055-0.02,0.109-0.036,0.162-0.056l16.957-6.193
		c2.963-1.083,6.092-1.637,9.243-1.635h64.136c8.918-0.011,16.146-7.239,16.156-16.156V154.506
		C336.135,145.586,328.906,138.36,319.989,138.349z"/>
	<path fill="#FFFFFF" d="M228,9.18C108.567,9.18,11.748,106,11.748,225.433S108.567,441.685,228,441.685
		c119.434,0,216.252-96.819,216.252-216.252S347.434,9.18,228,9.18z M346.916,292.944c-0.018,14.862-12.063,26.908-26.928,26.928
		h-64.132c-1.892-0.003-3.77,0.329-5.548,0.979l-16.959,6.195c-5.967,2.179-12.512,2.179-18.48,0l-16.958-6.195
		c-1.777-0.65-3.656-0.982-5.547-0.979h-64.136c-14.865-0.02-26.911-12.065-26.928-26.928v-138.44
		c0.017-14.863,12.063-26.911,26.928-26.928h64.136c3.151,0,6.279,0.553,9.242,1.637l16.959,6.195c3.581,1.306,7.509,1.306,11.089,0
		l16.955-6.195c2.963-1.084,6.092-1.637,9.243-1.637h64.136c14.864,0.017,26.91,12.063,26.928,26.928V292.944z"/>
	<path fill="#FFFFFF" d="M197.911,139.33c-1.777-0.65-3.656-0.983-5.547-0.983h-64.136c-8.92,0.01-16.146,7.239-16.157,16.157
		v138.435c0.01,8.92,7.237,16.146,16.157,16.158h64.136c3.151-0.004,6.279,0.55,9.239,1.634l16.958,6.197
		c0.052,0.02,0.107,0.033,0.159,0.053V146.609c-1.308-0.265-2.595-0.628-3.852-1.085L197.911,139.33z M132.079,176.438h42.555
		c2.974,0,5.385,2.41,5.385,5.385c0,2.974-2.411,5.386-5.385,5.386h-42.555c-2.974,0-5.385-2.412-5.385-5.386
		C126.694,178.848,129.105,176.438,132.079,176.438z M196.176,271.006h-64.097c-2.974,0-5.385-2.411-5.385-5.386
		c0-2.971,2.411-5.386,5.385-5.386h64.097c2.975,0,5.385,2.415,5.385,5.386C201.561,268.594,199.151,271.006,196.176,271.006z
		 M196.176,243.073h-64.097c-2.974,0-5.385-2.41-5.385-5.386c0-2.975,2.411-5.386,5.385-5.386h64.097
		c2.975,0,5.385,2.411,5.385,5.386C201.561,240.663,199.151,243.073,196.176,243.073z M196.176,215.142h-64.097
		c-2.974,0-5.385-2.411-5.385-5.386c0-2.975,2.411-5.386,5.385-5.386h64.097c2.975,0,5.385,2.411,5.385,5.386
		C201.561,212.731,199.151,215.142,196.176,215.142z"/>
</g>
</svg>
