<?xml version="1.0" encoding="utf-8"?>
<!-- Generator: Adobe Illustrator 16.0.0, SVG Export Plug-In . SVG Version: 6.00 Build 0)  -->
<!DOCTYPE svg PUBLIC "-//W3C//DTD SVG 1.1//EN" "http://www.w3.org/Graphics/SVG/1.1/DTD/svg11.dtd">
<svg version="1.1" id="Layer_1" xmlns="http://www.w3.org/2000/svg" xmlns:xlink="http://www.w3.org/1999/xlink" x="0px" y="0px"
	 width="705px" height="1060px" viewBox="0 0 705 1060" enable-background="new 0 0 705 1060" xml:space="preserve">
<path fill="#FFFFFF" d="M352.5,248c-155.734,0-282,126.266-282,282c0,155.735,126.266,282,282,282s282-126.265,282-282
	C634.5,374.265,508.235,248,352.5,248z M352.5,706.25c-19.459,0-35.25-15.792-35.25-35.25c0-19.457,15.791-35.25,35.25-35.25
	c19.457,0,35.25,15.793,35.25,35.25C387.75,690.458,371.957,706.25,352.5,706.25z M401.098,541.75
	C385.541,556.109,376,565.532,376,577h-47c0-32.641,22.301-53.227,40.208-69.795c18.776-17.343,30.292-28.928,30.292-47.705
	c0-25.92-21.08-47-47-47c-25.921,0-47,21.08-47,47h-47c0-51.841,42.158-94,94-94c51.841,0,94,42.159,94,94
	C446.5,499.802,421.331,523.045,401.098,541.75z"/>
</svg>
