<?xml version="1.0" encoding="utf-8"?>
<!-- Generator: Adobe Illustrator 16.0.0, SVG Export Plug-In . SVG Version: 6.00 Build 0)  -->
<!DOCTYPE svg PUBLIC "-//W3C//DTD SVG 1.1//EN" "http://www.w3.org/Graphics/SVG/1.1/DTD/svg11.dtd">
<svg version="1.1" id="Livello_1" xmlns="http://www.w3.org/2000/svg" xmlns:xlink="http://www.w3.org/1999/xlink" x="0px" y="0px"
	 width="705px" height="1060px" viewBox="0 0 705 1060" enable-background="new 0 0 705 1060" xml:space="preserve">
<title></title>
<path fill="#FFFFFF" d="M352.5,198.864c-188.781,0-341.818,153.037-341.818,341.818c0,188.78,153.037,341.817,341.818,341.817
	c188.78,0,341.817-153.037,341.817-341.817C694.318,351.901,541.281,198.864,352.5,198.864z M534.091,538.439
	c-0.058,1.296-1.156,2.301-2.452,2.243c-0.002,0-0.004,0-0.005,0h-30.55l-30.336,157.129c-1.389,7.903-8.213,13.695-16.236,13.78
	H250.489c-8.023-0.085-14.848-5.877-16.236-13.78l-30.336-157.129h-30.551c-1.296,0.06-2.396-0.942-2.456-2.238
	c0-0.002,0-0.004,0-0.005v-64.091c0.058-1.297,1.155-2.302,2.451-2.244c0.002,0,0.004,0.001,0.005,0.001h37.12
	c0.052-2.44,0.98-4.868,2.816-6.757l99.661-102.545c3.851-3.959,10.181-4.05,14.141-0.202c3.96,3.849,4.051,10.18,0.202,14.141
	l-92.681,95.362h235.75l-92.681-95.362c-3.85-3.961-3.759-10.292,0.201-14.141c3.961-3.85,10.29-3.758,14.141,0.202l99.661,102.545
	c1.836,1.889,2.765,4.316,2.816,6.757h37.12c1.296-0.061,2.396,0.941,2.456,2.238c0,0.001,0,0.003,0.001,0.005V538.439z"/>
<g>
	<g>
		<path fill="#FFFFFF" d="M352.5,648.227c-2.761,0-5-2.238-5-5v-34.182c0-2.762,2.239-5,5-5c2.762,0,5,2.238,5,5v34.182
			C357.5,645.989,355.262,648.227,352.5,648.227z"/>
	</g>
	<g>
		<path fill="#FFFFFF" d="M418.513,648.227c-2.762,0-5-2.238-5-5v-34.182c0-2.762,2.238-5,5-5s5,2.238,5,5v34.182
			C423.513,645.989,421.275,648.227,418.513,648.227z"/>
	</g>
	<g>
		<path fill="#FFFFFF" d="M286.487,648.227c-2.761,0-5-2.238-5-5v-34.182c0-2.762,2.239-5,5-5s5,2.238,5,5v34.182
			C291.487,645.989,289.248,648.227,286.487,648.227z"/>
	</g>
</g>
</svg>
