<?xml version="1.0" encoding="utf-8"?>
<!-- Generator: Adobe Illustrator 16.0.0, SVG Export Plug-In . SVG Version: 6.00 Build 0)  -->
<!DOCTYPE svg PUBLIC "-//W3C//DTD SVG 1.1//EN" "http://www.w3.org/Graphics/SVG/1.1/DTD/svg11.dtd">
<svg version="1.1" id="Layer_1" xmlns="http://www.w3.org/2000/svg" xmlns:xlink="http://www.w3.org/1999/xlink" x="0px" y="0px"
	 width="705px" height="1060px" viewBox="0 0 705 1060" enable-background="new 0 0 705 1060" xml:space="preserve">
<path fill="#FFFFFF" d="M352.505,175.505C166.659,175.505,16,326.148,16,512.007c0,185.832,150.658,336.488,336.505,336.488
	C538.342,848.495,689,697.839,689,512.007C689,326.146,538.342,175.505,352.505,175.505z M359.508,656.047
	c0,5.264-2.882,10.104-7.506,12.616c-2.141,1.161-4.498,1.737-6.849,1.737c-2.729,0-5.448-0.775-7.82-2.314l-129.045-83.813H160.59
	c-7.928,0-14.354-6.427-14.354-14.354V444.14c0-7.93,6.427-14.356,14.354-14.356h47.697l129.045-83.812
	c4.414-2.868,10.042-3.088,14.667-0.578c4.625,2.511,7.505,7.352,7.508,12.616V656.047z M399.461,608.565
	c-4.031,0-7.836-2.437-9.384-6.425c-2.012-5.184,0.558-11.016,5.739-13.024c24.802-9.632,42.123-42.273,42.123-79.384
	c0-33.626-13.998-63.556-35.662-76.25c-4.796-2.81-6.407-8.976-3.596-13.772c2.813-4.795,8.979-6.405,13.772-3.595
	c27.712,16.235,45.616,52.983,45.616,93.617c0,45.941-22.09,85.382-54.968,98.15C401.905,608.346,400.673,608.565,399.461,608.565z
	 M425.738,650.541c-4.033,0-7.837-2.439-9.384-6.424c-2.013-5.182,0.558-11.015,5.739-13.024
	c38.617-14.993,65.587-65.279,65.587-122.286c0-51.571-21.707-97.613-55.303-117.297c-4.797-2.81-6.407-8.976-3.596-13.771
	c2.808-4.797,8.977-6.407,13.77-3.596c39.644,23.226,65.258,76.084,65.258,134.664c0,65.121-32.25,123.121-78.431,141.051
	C428.182,650.322,426.951,650.541,425.738,650.541z M456.478,689.86c-1.207,0.471-2.452,0.692-3.677,0.692
	c-4.076,0-7.923-2.466-9.487-6.494c-2.033-5.237,0.564-11.131,5.802-13.166c52.581-20.414,89.303-87.358,89.303-162.795
	c0-68.006-29.311-129.121-74.674-155.698c-4.848-2.84-6.474-9.072-3.635-13.92c2.84-4.848,9.071-6.476,13.921-3.635
	c51.473,30.156,84.734,98.162,84.734,173.253C558.765,591.734,516.703,666.477,456.478,689.86z"/>
</svg>
