<?xml version="1.0" encoding="utf-8"?>
<!-- Generator: Adobe Illustrator 16.0.0, SVG Export Plug-In . SVG Version: 6.00 Build 0)  -->
<!DOCTYPE svg PUBLIC "-//W3C//DTD SVG 1.1//EN" "http://www.w3.org/Graphics/SVG/1.1/DTD/svg11.dtd">
<svg version="1.1" id="Capa_1" xmlns="http://www.w3.org/2000/svg" xmlns:xlink="http://www.w3.org/1999/xlink" x="0px" y="0px"
	 width="512px" height="512px" viewBox="0 0 512 512" enable-background="new 0 0 512 512" xml:space="preserve">
<path fill="#FFFFFF" d="M255.47,0C114.379,0,0,114.365,0,255.467c0,141.082,114.378,255.456,255.47,255.456
	c141.085,0,255.462-114.374,255.462-255.456C510.932,114.364,396.555,0,255.47,0z M255.088,374.397
	c-1.626,0.882-3.416,1.319-5.201,1.319c-2.071,0-4.136-0.588-5.937-1.756l-97.969-63.63h-36.211c-6.019,0-10.898-4.88-10.898-10.897
	v-95.49c0-6.021,4.88-10.9,10.898-10.9h36.211l97.969-63.628c3.351-2.176,7.623-2.344,11.135-0.439
	c3.511,1.906,5.698,5.582,5.7,9.578v226.265h0.001C260.786,368.817,258.598,372.491,255.088,374.397z"/>
</svg>
