<?xml version="1.0" encoding="utf-8"?>
<!-- Generator: Adobe Illustrator 16.0.0, SVG Export Plug-In . SVG Version: 6.00 Build 0)  -->
<!DOCTYPE svg PUBLIC "-//W3C//DTD SVG 1.1//EN" "http://www.w3.org/Graphics/SVG/1.1/DTD/svg11.dtd">
<svg version="1.1" id="Capa_1" xmlns="http://www.w3.org/2000/svg" xmlns:xlink="http://www.w3.org/1999/xlink" x="0px" y="0px"
	 width="512px" height="512px" viewBox="0 0 512 512" enable-background="new 0 0 512 512" xml:space="preserve">
<path fill="#FFFFFF" d="M255.47,0C114.379,0,0,114.365,0,255.467c0,141.082,114.378,255.456,255.47,255.456
	c141.085,0,255.462-114.374,255.462-255.456C510.932,114.364,396.555,0,255.47,0z M260.786,364.819c0,3.998-2.188,7.672-5.698,9.578
	c-1.626,0.882-3.416,1.319-5.201,1.319c-2.071,0-4.136-0.588-5.937-1.756l-97.969-63.63h-36.211c-6.019,0-10.898-4.88-10.898-10.897
	v-95.49c0-6.021,4.88-10.9,10.898-10.9h36.211l97.969-63.628c3.351-2.176,7.623-2.344,11.135-0.439
	c3.511,1.906,5.698,5.582,5.7,9.578L260.786,364.819L260.786,364.819z M291.118,328.771c-3.061,0-5.949-1.849-7.125-4.877
	c-1.527-3.936,0.424-8.362,4.357-9.888c18.829-7.313,31.979-32.094,31.979-60.267c0-25.529-10.628-48.251-27.074-57.888
	c-3.642-2.134-4.865-6.815-2.73-10.456c2.135-3.641,6.816-4.863,10.455-2.729c21.038,12.325,34.631,40.224,34.631,71.073
	c0,34.878-16.77,64.819-41.73,74.514C292.973,328.606,292.038,328.771,291.118,328.771z M311.066,360.638
	c-3.061,0-5.948-1.851-7.123-4.876c-1.528-3.935,0.423-8.361,4.357-9.888c29.318-11.382,49.793-49.559,49.793-92.838
	c0-39.151-16.48-74.106-41.986-89.049c-3.643-2.134-4.863-6.815-2.729-10.456c2.132-3.642,6.814-4.865,10.454-2.729
	c30.098,17.631,49.542,57.762,49.542,102.234c0,49.439-24.482,93.472-59.543,107.084
	C312.922,360.473,311.988,360.638,311.066,360.638z M334.405,390.489c-0.916,0.358-1.862,0.527-2.791,0.527
	c-3.095,0-6.016-1.872-7.202-4.931c-1.544-3.977,0.428-8.451,4.403-9.996c39.919-15.498,67.799-66.321,67.799-123.591
	c0-51.629-22.254-98.027-56.693-118.204c-3.68-2.156-4.914-6.887-2.759-10.567c2.156-3.682,6.887-4.917,10.568-2.76
	c39.078,22.894,64.329,74.524,64.329,131.531C412.059,315.995,380.125,372.738,334.405,390.489z"/>
</svg>
